<?xml version="1.0" standalone="no"?>
<!DOCTYPE svg PUBLIC "-//W3C//DTD SVG 20010904//EN"
 "http://www.w3.org/TR/2001/REC-SVG-20010904/DTD/svg10.dtd">
<svg version="1.0" xmlns="http://www.w3.org/2000/svg"
 width="512.000000pt" height="512.000000pt" viewBox="0 0 512.000000 512.000000"
 preserveAspectRatio="xMidYMid meet">
<metadata>
Created by potrace 1.14, written by Peter Selinger 2001-2017
</metadata>
<g transform="translate(0.000000,512.000000) scale(0.100000,-0.100000)"
fill="#000000" stroke="none">
<path d="M330 5088 c-24 -41 -33 -97 -34 -218 0 -93 10 -265 19 -325 4 -28 17
-123 30 -225 12 -86 46 -285 65 -380 11 -52 21 -106 24 -120 14 -78 62 -305
92 -435 20 -82 37 -161 40 -175 12 -60 160 -596 169 -611 3 -3 -7 -24 -22 -45
-159 -233 -344 -598 -458 -904 -40 -106 -125 -368 -125 -384 0 -3 26 10 58 28
76 43 234 118 238 113 2 -2 -5 -30 -16 -62 -11 -32 -23 -87 -26 -122 l-6 -63
86 40 c104 48 290 113 366 129 30 6 69 13 85 17 54 10 259 13 323 3 107 -15
250 -82 322 -150 132 -124 206 -278 260 -539 58 -279 154 -430 297 -471 30 -8
58 -26 84 -54 59 -63 144 -106 244 -122 52 -9 199 -8 250 1 68 13 179 72 221
118 29 31 57 49 98 62 63 22 146 92 185 158 24 40 77 188 86 240 70 401 213
621 469 722 82 33 136 41 276 41 209 0 383 -44 634 -159 l79 -37 -6 61 c-4 33
-16 88 -27 122 -11 34 -18 63 -16 65 4 5 162 -70 237 -113 33 -18 59 -31 59
-28 0 16 -97 311 -138 419 -118 309 -310 681 -462 890 -28 39 -53 80 -56 91
-3 12 4 53 15 90 11 38 31 112 45 164 14 52 32 122 41 155 9 33 18 68 20 78 2
10 6 26 9 35 3 9 7 28 10 42 3 14 21 95 41 180 39 167 40 170 55 245 5 28 12
61 15 75 12 59 25 127 30 160 4 19 11 55 16 80 15 65 38 196 54 315 3 22 7 49
10 60 2 11 7 49 11 85 3 36 8 67 10 70 9 16 19 216 18 365 0 204 -10 240 -68
251 -48 9 -133 -23 -233 -89 -66 -43 -207 -149 -223 -168 -3 -3 -30 -27 -60
-54 -198 -172 -584 -581 -885 -940 -61 -71 -120 -141 -132 -155 -13 -14 -23
-28 -23 -31 0 -4 -35 4 -77 18 -43 14 -86 26 -96 28 -10 2 -26 6 -35 9 -89 27
-249 44 -382 40 -63 -2 -124 -5 -135 -7 -11 -3 -40 -8 -65 -12 -66 -11 -69
-11 -139 -30 -35 -9 -100 -30 -145 -46 -44 -16 -81 -29 -82 -29 -1 0 -71 82
-155 183 -84 100 -168 198 -185 217 -252 280 -343 378 -497 532 -315 317 -523
479 -669 523 -77 22 -95 20 -118 -17z"/>
</g>
</svg>
